<mxfile host="app.diagrams.net" modified="2024-01-26T03:24:19.091Z" agent="Mozilla/5.0 (Windows NT 10.0; Win64; x64) AppleWebKit/537.36 (KHTML, like Gecko) Chrome/120.0.0.0 Safari/537.36" etag="5StT1cqNA3JsnFhL8bWC" version="23.0.1" type="device">
  <diagram id="prtHgNgQTEPvFCAcTncT" name="Page-1">
    <mxGraphModel dx="9019" dy="6250" grid="1" gridSize="10" guides="1" tooltips="1" connect="1" arrows="1" fold="1" page="1" pageScale="1" pageWidth="827" pageHeight="1169" math="0" shadow="0">
      <root>
        <mxCell id="0" />
        <mxCell id="1" parent="0" />
        <mxCell id="rdi_FOHlSSDE4guylNng-269" value="" style="rounded=0;whiteSpace=wrap;html=1;strokeWidth=10;" vertex="1" parent="1">
          <mxGeometry x="-3690" y="810" width="6420" height="4240" as="geometry" />
        </mxCell>
        <mxCell id="rdi_FOHlSSDE4guylNng-183" value="" style="rounded=0;whiteSpace=wrap;html=1;strokeWidth=4;" vertex="1" parent="1">
          <mxGeometry x="3810" y="660" width="2330" height="5230" as="geometry" />
        </mxCell>
        <mxCell id="rdi_FOHlSSDE4guylNng-284" style="edgeStyle=orthogonalEdgeStyle;rounded=0;orthogonalLoop=1;jettySize=auto;html=1;entryX=0;entryY=0.5;entryDx=0;entryDy=0;strokeWidth=12;" edge="1" parent="1" source="rdi_FOHlSSDE4guylNng-14" target="rdi_FOHlSSDE4guylNng-283">
          <mxGeometry relative="1" as="geometry" />
        </mxCell>
        <mxCell id="rdi_FOHlSSDE4guylNng-14" value="로그인" style="rhombus;whiteSpace=wrap;html=1;fontSize=100;strokeWidth=7;" vertex="1" parent="1">
          <mxGeometry x="-3165" y="2370" width="1150" height="840" as="geometry" />
        </mxCell>
        <mxCell id="rdi_FOHlSSDE4guylNng-19" value="프로필" style="rounded=0;whiteSpace=wrap;html=1;fontSize=100;strokeWidth=5;" vertex="1" parent="1">
          <mxGeometry x="-1760" y="3290" width="730" height="500" as="geometry" />
        </mxCell>
        <mxCell id="rdi_FOHlSSDE4guylNng-20" value="&lt;b style=&quot;font-size: 100px;&quot;&gt;모니터링&lt;/b&gt;" style="rounded=0;whiteSpace=wrap;html=1;fontSize=100;strokeWidth=5;" vertex="1" parent="1">
          <mxGeometry x="2840" y="100" width="730" height="420" as="geometry" />
        </mxCell>
        <mxCell id="rdi_FOHlSSDE4guylNng-22" value="구민 : 메인 , 모니터링&lt;br style=&quot;font-size: 200px;&quot;&gt;민영 : 프로필 , 로그인 , 모니터링&lt;br style=&quot;font-size: 200px;&quot;&gt;은별 : 재고 , 입고&lt;br style=&quot;font-size: 200px;&quot;&gt;의건 : 공정, 예측&lt;br style=&quot;font-size: 200px;&quot;&gt;지훈 : 생산계획, 생산실적&lt;br style=&quot;font-size: 200px;&quot;&gt;" style="shape=document;whiteSpace=wrap;html=1;boundedLbl=1;fontSize=200;" vertex="1" parent="1">
          <mxGeometry x="658" y="-1510" width="3032" height="1880" as="geometry" />
        </mxCell>
        <mxCell id="rdi_FOHlSSDE4guylNng-193" style="edgeStyle=orthogonalEdgeStyle;rounded=0;orthogonalLoop=1;jettySize=auto;html=1;entryX=0.5;entryY=0;entryDx=0;entryDy=0;strokeWidth=12;" edge="1" parent="1" source="rdi_FOHlSSDE4guylNng-83" target="rdi_FOHlSSDE4guylNng-14">
          <mxGeometry relative="1" as="geometry" />
        </mxCell>
        <mxCell id="rdi_FOHlSSDE4guylNng-83" value="로그인 페이지&lt;br&gt;" style="rounded=0;whiteSpace=wrap;html=1;fontSize=100;strokeWidth=10;" vertex="1" parent="1">
          <mxGeometry x="-3190" y="210" width="1200" height="420" as="geometry" />
        </mxCell>
        <mxCell id="rdi_FOHlSSDE4guylNng-88" value="검색기능" style="rounded=0;whiteSpace=wrap;html=1;fontSize=100;strokeWidth=5;" vertex="1" parent="1">
          <mxGeometry x="-850" y="3290" width="700" height="500" as="geometry" />
        </mxCell>
        <mxCell id="rdi_FOHlSSDE4guylNng-92" value="&lt;font style=&quot;font-size: 77px;&quot;&gt;메인 페이지의 세부 카테고리들&lt;br style=&quot;font-size: 77px;&quot;&gt;&lt;/font&gt;" style="rounded=1;whiteSpace=wrap;html=1;fontSize=77;strokeWidth=7;" vertex="1" parent="1">
          <mxGeometry x="4090" y="340" width="1660" height="230" as="geometry" />
        </mxCell>
        <mxCell id="rdi_FOHlSSDE4guylNng-132" value="관리자" style="shape=actor;whiteSpace=wrap;html=1;fontSize=100;strokeWidth=10;" vertex="1" parent="1">
          <mxGeometry x="1310" y="840" width="790" height="890" as="geometry" />
        </mxCell>
        <mxCell id="rdi_FOHlSSDE4guylNng-186" value="사원" style="shape=actor;whiteSpace=wrap;html=1;fontSize=100;strokeWidth=10;" vertex="1" parent="1">
          <mxGeometry x="1310" y="3750" width="790" height="890" as="geometry" />
        </mxCell>
        <mxCell id="rdi_FOHlSSDE4guylNng-272" style="edgeStyle=orthogonalEdgeStyle;rounded=0;orthogonalLoop=1;jettySize=auto;html=1;entryX=0.5;entryY=1;entryDx=0;entryDy=0;strokeWidth=12;" edge="1" parent="1" source="rdi_FOHlSSDE4guylNng-270" target="rdi_FOHlSSDE4guylNng-132">
          <mxGeometry relative="1" as="geometry" />
        </mxCell>
        <mxCell id="rdi_FOHlSSDE4guylNng-273" style="edgeStyle=orthogonalEdgeStyle;rounded=0;orthogonalLoop=1;jettySize=auto;html=1;strokeWidth=12;" edge="1" parent="1" source="rdi_FOHlSSDE4guylNng-270" target="rdi_FOHlSSDE4guylNng-186">
          <mxGeometry relative="1" as="geometry" />
        </mxCell>
        <mxCell id="rdi_FOHlSSDE4guylNng-270" value="사원&amp;nbsp;&lt;br&gt;or&lt;br&gt;관리자&lt;br&gt;" style="rhombus;whiteSpace=wrap;html=1;fontSize=100;strokeWidth=7;" vertex="1" parent="1">
          <mxGeometry x="190" y="2370" width="1150" height="840" as="geometry" />
        </mxCell>
        <mxCell id="rdi_FOHlSSDE4guylNng-274" style="edgeStyle=orthogonalEdgeStyle;rounded=0;orthogonalLoop=1;jettySize=auto;html=1;entryX=0;entryY=0.129;entryDx=0;entryDy=0;entryPerimeter=0;strokeWidth=12;" edge="1" parent="1" source="rdi_FOHlSSDE4guylNng-132" target="rdi_FOHlSSDE4guylNng-183">
          <mxGeometry relative="1" as="geometry" />
        </mxCell>
        <mxCell id="rdi_FOHlSSDE4guylNng-280" value="" style="edgeStyle=elbowEdgeStyle;elbow=vertical;endArrow=classic;html=1;curved=0;rounded=0;endSize=8;startSize=8;exitX=0.5;exitY=1;exitDx=0;exitDy=0;strokeWidth=12;" edge="1" parent="1" source="rdi_FOHlSSDE4guylNng-14">
          <mxGeometry width="50" height="50" relative="1" as="geometry">
            <mxPoint x="-2584" y="3290" as="sourcePoint" />
            <mxPoint x="-3360" y="1720" as="targetPoint" />
            <Array as="points">
              <mxPoint x="-2970" y="3350" />
            </Array>
          </mxGeometry>
        </mxCell>
        <mxCell id="rdi_FOHlSSDE4guylNng-282" value="" style="endArrow=classic;html=1;rounded=0;strokeWidth=12;" edge="1" parent="1">
          <mxGeometry width="50" height="50" relative="1" as="geometry">
            <mxPoint x="-3360" y="1720" as="sourcePoint" />
            <mxPoint x="-2600" y="1720" as="targetPoint" />
          </mxGeometry>
        </mxCell>
        <mxCell id="rdi_FOHlSSDE4guylNng-285" style="edgeStyle=orthogonalEdgeStyle;rounded=0;orthogonalLoop=1;jettySize=auto;html=1;strokeWidth=12;" edge="1" parent="1" source="rdi_FOHlSSDE4guylNng-283" target="rdi_FOHlSSDE4guylNng-270">
          <mxGeometry relative="1" as="geometry" />
        </mxCell>
        <mxCell id="rdi_FOHlSSDE4guylNng-283" value="메인 페이지" style="rounded=0;whiteSpace=wrap;html=1;fontSize=100;strokeWidth=10;" vertex="1" parent="1">
          <mxGeometry x="-1580" y="2580" width="1200" height="420" as="geometry" />
        </mxCell>
        <mxCell id="rdi_FOHlSSDE4guylNng-288" value="" style="strokeWidth=12;html=1;shape=mxgraph.flowchart.annotation_2;align=left;labelPosition=right;pointerEvents=1;direction=south;" vertex="1" parent="1">
          <mxGeometry x="-1400" y="3000" width="905" height="290" as="geometry" />
        </mxCell>
        <mxCell id="rdi_FOHlSSDE4guylNng-444" value="" style="group;strokeWidth=4;" vertex="1" connectable="0" parent="1">
          <mxGeometry x="4260" y="770" width="1360" height="850" as="geometry" />
        </mxCell>
        <mxCell id="yiQyodVWs_H40nuC7oee-20" value="공정기준" style="rounded=0;whiteSpace=wrap;html=1;fontSize=50;strokeWidth=4;" parent="rdi_FOHlSSDE4guylNng-444" vertex="1">
          <mxGeometry x="960" y="350" width="400" height="150" as="geometry" />
        </mxCell>
        <mxCell id="Z4Fvok1uF1llNMhCyEb8-15" value="작업지시서" style="rounded=0;whiteSpace=wrap;html=1;fontSize=50;strokeWidth=4;" parent="rdi_FOHlSSDE4guylNng-444" vertex="1">
          <mxGeometry y="170" width="400" height="150" as="geometry" />
        </mxCell>
        <mxCell id="Z4Fvok1uF1llNMhCyEb8-16" value="공정단계" style="rounded=0;whiteSpace=wrap;html=1;fontSize=50;strokeWidth=4;" parent="rdi_FOHlSSDE4guylNng-444" vertex="1">
          <mxGeometry width="400" height="150" as="geometry" />
        </mxCell>
        <mxCell id="rdi_FOHlSSDE4guylNng-73" value="장비정보관리" style="rounded=0;whiteSpace=wrap;html=1;fontSize=50;strokeWidth=4;" vertex="1" parent="rdi_FOHlSSDE4guylNng-444">
          <mxGeometry y="350" width="400" height="150" as="geometry" />
        </mxCell>
        <mxCell id="rdi_FOHlSSDE4guylNng-74" value="부품정보관리" style="rounded=0;whiteSpace=wrap;html=1;fontSize=50;strokeWidth=4;" vertex="1" parent="rdi_FOHlSSDE4guylNng-444">
          <mxGeometry y="530" width="400" height="150" as="geometry" />
        </mxCell>
        <mxCell id="rdi_FOHlSSDE4guylNng-76" value="기초코드" style="rounded=0;whiteSpace=wrap;html=1;fontSize=50;strokeWidth=4;" vertex="1" parent="rdi_FOHlSSDE4guylNng-444">
          <mxGeometry y="700" width="400" height="150" as="geometry" />
        </mxCell>
        <mxCell id="rdi_FOHlSSDE4guylNng-133" value="" style="strokeWidth=4;html=1;shape=mxgraph.flowchart.annotation_2;align=left;labelPosition=right;pointerEvents=1;direction=west;" vertex="1" parent="rdi_FOHlSSDE4guylNng-444">
          <mxGeometry x="400" y="80" width="560" height="690" as="geometry" />
        </mxCell>
        <mxCell id="rdi_FOHlSSDE4guylNng-136" value="" style="endArrow=none;html=1;rounded=0;entryX=1.001;entryY=0.797;entryDx=0;entryDy=0;entryPerimeter=0;strokeWidth=4;" edge="1" parent="rdi_FOHlSSDE4guylNng-444" target="rdi_FOHlSSDE4guylNng-133">
          <mxGeometry width="50" height="50" relative="1" as="geometry">
            <mxPoint x="680" y="220" as="sourcePoint" />
            <mxPoint x="700" y="370" as="targetPoint" />
          </mxGeometry>
        </mxCell>
        <mxCell id="rdi_FOHlSSDE4guylNng-142" value="" style="endArrow=none;html=1;rounded=0;entryX=1.001;entryY=0.797;entryDx=0;entryDy=0;entryPerimeter=0;strokeWidth=4;exitX=0.497;exitY=0.501;exitDx=0;exitDy=0;exitPerimeter=0;" edge="1" parent="rdi_FOHlSSDE4guylNng-444" source="rdi_FOHlSSDE4guylNng-133">
          <mxGeometry width="50" height="50" relative="1" as="geometry">
            <mxPoint x="681" y="423.56999999999994" as="sourcePoint" />
            <mxPoint x="400" y="423.56999999999994" as="targetPoint" />
          </mxGeometry>
        </mxCell>
        <mxCell id="rdi_FOHlSSDE4guylNng-146" value="" style="endArrow=none;html=1;rounded=0;entryX=1.001;entryY=0.797;entryDx=0;entryDy=0;entryPerimeter=0;strokeWidth=4;" edge="1" parent="rdi_FOHlSSDE4guylNng-444">
          <mxGeometry width="50" height="50" relative="1" as="geometry">
            <mxPoint x="681" y="603.5700000000002" as="sourcePoint" />
            <mxPoint x="400" y="603.5700000000002" as="targetPoint" />
          </mxGeometry>
        </mxCell>
        <mxCell id="rdi_FOHlSSDE4guylNng-445" value="" style="group;strokeWidth=4;" vertex="1" connectable="0" parent="1">
          <mxGeometry x="4260" y="1680" width="1360" height="668" as="geometry" />
        </mxCell>
        <mxCell id="rdi_FOHlSSDE4guylNng-48" value="생산실적관리" style="rounded=0;whiteSpace=wrap;html=1;fontSize=50;strokeWidth=4;" vertex="1" parent="rdi_FOHlSSDE4guylNng-445">
          <mxGeometry x="960" y="270" width="400" height="150" as="geometry" />
        </mxCell>
        <mxCell id="rdi_FOHlSSDE4guylNng-53" value="생산부품관리" style="rounded=0;whiteSpace=wrap;html=1;fontSize=50;strokeWidth=4;" vertex="1" parent="rdi_FOHlSSDE4guylNng-445">
          <mxGeometry width="400" height="150" as="geometry" />
        </mxCell>
        <mxCell id="rdi_FOHlSSDE4guylNng-96" value="세부공정생산&lt;br style=&quot;font-size: 50px;&quot;&gt;계획관리" style="rounded=0;whiteSpace=wrap;html=1;fontSize=50;strokeWidth=4;" vertex="1" parent="rdi_FOHlSSDE4guylNng-445">
          <mxGeometry y="180" width="400" height="150" as="geometry" />
        </mxCell>
        <mxCell id="rdi_FOHlSSDE4guylNng-97" value="작업자별&lt;br style=&quot;font-size: 50px;&quot;&gt;일정현황" style="rounded=0;whiteSpace=wrap;html=1;fontSize=50;strokeWidth=4;" vertex="1" parent="rdi_FOHlSSDE4guylNng-445">
          <mxGeometry y="350" width="400" height="150" as="geometry" />
        </mxCell>
        <mxCell id="rdi_FOHlSSDE4guylNng-98" value="공정별&lt;br style=&quot;font-size: 40px;&quot;&gt;작업지시&lt;br style=&quot;font-size: 40px;&quot;&gt;관리/출력" style="rounded=0;whiteSpace=wrap;html=1;fontSize=40;strokeWidth=4;" vertex="1" parent="rdi_FOHlSSDE4guylNng-445">
          <mxGeometry y="518" width="400" height="150" as="geometry" />
        </mxCell>
        <mxCell id="rdi_FOHlSSDE4guylNng-163" value="" style="group;strokeWidth=4;" vertex="1" connectable="0" parent="rdi_FOHlSSDE4guylNng-445">
          <mxGeometry x="400" y="70" width="560" height="520" as="geometry" />
        </mxCell>
        <mxCell id="rdi_FOHlSSDE4guylNng-144" value="" style="strokeWidth=4;html=1;shape=mxgraph.flowchart.annotation_2;align=left;labelPosition=right;pointerEvents=1;direction=west;" vertex="1" parent="rdi_FOHlSSDE4guylNng-163">
          <mxGeometry width="560" height="520" as="geometry" />
        </mxCell>
        <mxCell id="rdi_FOHlSSDE4guylNng-160" value="" style="endArrow=none;html=1;rounded=0;entryX=1.001;entryY=0.797;entryDx=0;entryDy=0;entryPerimeter=0;strokeWidth=4;" edge="1" parent="rdi_FOHlSSDE4guylNng-163">
          <mxGeometry width="50" height="50" relative="1" as="geometry">
            <mxPoint x="281" y="360" as="sourcePoint" />
            <mxPoint y="360" as="targetPoint" />
          </mxGeometry>
        </mxCell>
        <mxCell id="rdi_FOHlSSDE4guylNng-161" value="" style="endArrow=none;html=1;rounded=0;entryX=1.001;entryY=0.797;entryDx=0;entryDy=0;entryPerimeter=0;strokeWidth=4;" edge="1" parent="rdi_FOHlSSDE4guylNng-163">
          <mxGeometry width="50" height="50" relative="1" as="geometry">
            <mxPoint x="281" y="170" as="sourcePoint" />
            <mxPoint y="170" as="targetPoint" />
          </mxGeometry>
        </mxCell>
        <mxCell id="rdi_FOHlSSDE4guylNng-446" value="" style="group;strokeWidth=4;" vertex="1" connectable="0" parent="1">
          <mxGeometry x="4260" y="2410" width="1360" height="860" as="geometry" />
        </mxCell>
        <mxCell id="rdi_FOHlSSDE4guylNng-61" value="작업지시&lt;br style=&quot;font-size: 50px;&quot;&gt;설계 / 현황" style="rounded=0;whiteSpace=wrap;html=1;fontSize=50;strokeWidth=4;" vertex="1" parent="rdi_FOHlSSDE4guylNng-446">
          <mxGeometry y="175" width="400" height="150" as="geometry" />
        </mxCell>
        <mxCell id="rdi_FOHlSSDE4guylNng-62" value="생산계획&lt;br style=&quot;font-size: 50px;&quot;&gt;수립 / 현황" style="rounded=0;whiteSpace=wrap;html=1;fontSize=50;strokeWidth=4;" vertex="1" parent="rdi_FOHlSSDE4guylNng-446">
          <mxGeometry width="400" height="150" as="geometry" />
        </mxCell>
        <mxCell id="rdi_FOHlSSDE4guylNng-63" value="생산계획대비&lt;br style=&quot;font-size: 50px;&quot;&gt;실적현황" style="rounded=0;whiteSpace=wrap;html=1;fontSize=50;strokeWidth=4;" vertex="1" parent="rdi_FOHlSSDE4guylNng-446">
          <mxGeometry y="350" width="400" height="150" as="geometry" />
        </mxCell>
        <mxCell id="rdi_FOHlSSDE4guylNng-64" value="작업지시대비&lt;br style=&quot;font-size: 50px;&quot;&gt;실적현황" style="rounded=0;whiteSpace=wrap;html=1;fontSize=50;strokeWidth=4;" vertex="1" parent="rdi_FOHlSSDE4guylNng-446">
          <mxGeometry y="530" width="400" height="150" as="geometry" />
        </mxCell>
        <mxCell id="rdi_FOHlSSDE4guylNng-65" value="장비별&lt;br style=&quot;font-size: 50px;&quot;&gt;생산실적현황" style="rounded=0;whiteSpace=wrap;html=1;fontSize=50;strokeWidth=4;" vertex="1" parent="rdi_FOHlSSDE4guylNng-446">
          <mxGeometry y="710" width="400" height="150" as="geometry" />
        </mxCell>
        <mxCell id="rdi_FOHlSSDE4guylNng-93" value="생산 계획관리" style="rounded=0;whiteSpace=wrap;html=1;fontSize=50;strokeWidth=4;" vertex="1" parent="rdi_FOHlSSDE4guylNng-446">
          <mxGeometry x="960" y="350" width="400" height="150" as="geometry" />
        </mxCell>
        <mxCell id="rdi_FOHlSSDE4guylNng-131" style="edgeStyle=orthogonalEdgeStyle;rounded=0;orthogonalLoop=1;jettySize=auto;html=1;exitX=0.5;exitY=1;exitDx=0;exitDy=0;strokeWidth=4;" edge="1" parent="rdi_FOHlSSDE4guylNng-446" source="rdi_FOHlSSDE4guylNng-93" target="rdi_FOHlSSDE4guylNng-93">
          <mxGeometry relative="1" as="geometry" />
        </mxCell>
        <mxCell id="rdi_FOHlSSDE4guylNng-162" value="" style="group;strokeWidth=4;" vertex="1" connectable="0" parent="rdi_FOHlSSDE4guylNng-446">
          <mxGeometry x="400" y="70" width="560" height="710" as="geometry" />
        </mxCell>
        <mxCell id="rdi_FOHlSSDE4guylNng-51" style="edgeStyle=orthogonalEdgeStyle;rounded=0;orthogonalLoop=1;jettySize=auto;html=1;exitX=0.5;exitY=1;exitDx=0;exitDy=0;strokeWidth=4;" edge="1" parent="rdi_FOHlSSDE4guylNng-162">
          <mxGeometry relative="1" as="geometry">
            <mxPoint x="260" y="290" as="sourcePoint" />
            <mxPoint x="260" y="290" as="targetPoint" />
          </mxGeometry>
        </mxCell>
        <mxCell id="rdi_FOHlSSDE4guylNng-145" value="" style="strokeWidth=4;html=1;shape=mxgraph.flowchart.annotation_2;align=left;labelPosition=right;pointerEvents=1;direction=west;" vertex="1" parent="rdi_FOHlSSDE4guylNng-162">
          <mxGeometry width="560" height="710" as="geometry" />
        </mxCell>
        <mxCell id="rdi_FOHlSSDE4guylNng-155" value="" style="endArrow=none;html=1;rounded=0;entryX=1.001;entryY=0.797;entryDx=0;entryDy=0;entryPerimeter=0;strokeWidth=4;" edge="1" parent="rdi_FOHlSSDE4guylNng-162">
          <mxGeometry width="50" height="50" relative="1" as="geometry">
            <mxPoint x="281" y="179.47000000000025" as="sourcePoint" />
            <mxPoint y="179.47000000000025" as="targetPoint" />
          </mxGeometry>
        </mxCell>
        <mxCell id="rdi_FOHlSSDE4guylNng-156" value="" style="endArrow=none;html=1;rounded=0;entryX=1.001;entryY=0.797;entryDx=0;entryDy=0;entryPerimeter=0;strokeWidth=4;" edge="1" parent="rdi_FOHlSSDE4guylNng-162">
          <mxGeometry width="50" height="50" relative="1" as="geometry">
            <mxPoint x="281" y="354.47000000000025" as="sourcePoint" />
            <mxPoint y="354.47000000000025" as="targetPoint" />
          </mxGeometry>
        </mxCell>
        <mxCell id="rdi_FOHlSSDE4guylNng-159" value="" style="endArrow=none;html=1;rounded=0;entryX=1.001;entryY=0.797;entryDx=0;entryDy=0;entryPerimeter=0;strokeWidth=4;" edge="1" parent="rdi_FOHlSSDE4guylNng-162">
          <mxGeometry width="50" height="50" relative="1" as="geometry">
            <mxPoint x="281" y="534.4700000000003" as="sourcePoint" />
            <mxPoint y="534.4700000000003" as="targetPoint" />
          </mxGeometry>
        </mxCell>
        <mxCell id="rdi_FOHlSSDE4guylNng-447" value="" style="group;strokeWidth=4;" vertex="1" connectable="0" parent="1">
          <mxGeometry x="4260" y="3320" width="1360" height="503" as="geometry" />
        </mxCell>
        <mxCell id="rdi_FOHlSSDE4guylNng-18" value="재고관리" style="rounded=0;whiteSpace=wrap;html=1;fontSize=50;strokeWidth=4;" vertex="1" parent="rdi_FOHlSSDE4guylNng-447">
          <mxGeometry y="158" width="400" height="150" as="geometry" />
        </mxCell>
        <mxCell id="rdi_FOHlSSDE4guylNng-117" value="재고현황" style="rounded=0;whiteSpace=wrap;html=1;fontSize=50;verticalAlign=middle;strokeWidth=4;" vertex="1" parent="rdi_FOHlSSDE4guylNng-447">
          <mxGeometry x="960" width="400" height="150" as="geometry" />
        </mxCell>
        <mxCell id="rdi_FOHlSSDE4guylNng-120" value="출하조회/입력" style="rounded=0;whiteSpace=wrap;html=1;fontSize=50;verticalAlign=middle;strokeWidth=4;" vertex="1" parent="rdi_FOHlSSDE4guylNng-447">
          <mxGeometry x="960" y="173" width="400" height="150" as="geometry" />
        </mxCell>
        <mxCell id="rdi_FOHlSSDE4guylNng-121" value="출하지시서 조회/입력" style="rounded=0;whiteSpace=wrap;html=1;fontSize=50;verticalAlign=middle;strokeWidth=4;" vertex="1" parent="rdi_FOHlSSDE4guylNng-447">
          <mxGeometry x="960" y="353" width="400" height="150" as="geometry" />
        </mxCell>
        <mxCell id="rdi_FOHlSSDE4guylNng-166" style="edgeStyle=orthogonalEdgeStyle;rounded=0;orthogonalLoop=1;jettySize=auto;html=1;exitX=0.5;exitY=1;exitDx=0;exitDy=0;strokeWidth=4;" edge="1" parent="rdi_FOHlSSDE4guylNng-447">
          <mxGeometry relative="1" as="geometry">
            <mxPoint x="949" y="333" as="sourcePoint" />
            <mxPoint x="949" y="333" as="targetPoint" />
          </mxGeometry>
        </mxCell>
        <mxCell id="rdi_FOHlSSDE4guylNng-167" value="" style="strokeWidth=4;html=1;shape=mxgraph.flowchart.annotation_2;align=left;labelPosition=right;pointerEvents=1;direction=east;" vertex="1" parent="rdi_FOHlSSDE4guylNng-447">
          <mxGeometry x="400" y="43" width="560" height="380" as="geometry" />
        </mxCell>
        <mxCell id="rdi_FOHlSSDE4guylNng-170" value="" style="endArrow=none;html=1;rounded=0;entryX=1.001;entryY=0.797;entryDx=0;entryDy=0;entryPerimeter=0;strokeWidth=4;" edge="1" parent="rdi_FOHlSSDE4guylNng-447">
          <mxGeometry width="50" height="50" relative="1" as="geometry">
            <mxPoint x="960" y="233.00000000000045" as="sourcePoint" />
            <mxPoint x="679" y="233.00000000000045" as="targetPoint" />
          </mxGeometry>
        </mxCell>
        <mxCell id="rdi_FOHlSSDE4guylNng-448" value="" style="group;strokeWidth=4;" vertex="1" connectable="0" parent="1">
          <mxGeometry x="4250" y="3880" width="1360" height="670" as="geometry" />
        </mxCell>
        <mxCell id="rdi_FOHlSSDE4guylNng-16" value="입고 관리" style="rounded=0;whiteSpace=wrap;html=1;fontSize=50;strokeWidth=4;" vertex="1" parent="rdi_FOHlSSDE4guylNng-448">
          <mxGeometry y="255" width="400" height="150" as="geometry" />
        </mxCell>
        <mxCell id="rdi_FOHlSSDE4guylNng-26" value="&lt;span style=&quot;font-size: 50px;&quot;&gt;거래처 &lt;br&gt;관리/등록&lt;/span&gt;" style="rounded=0;whiteSpace=wrap;html=1;fontSize=50;strokeWidth=4;" vertex="1" parent="rdi_FOHlSSDE4guylNng-448">
          <mxGeometry x="960" y="520" width="400" height="150" as="geometry" />
        </mxCell>
        <mxCell id="rdi_FOHlSSDE4guylNng-27" value="&lt;span style=&quot;font-size: 50px;&quot;&gt;품목등록&lt;/span&gt;" style="rounded=0;whiteSpace=wrap;html=1;fontSize=50;strokeWidth=4;" vertex="1" parent="rdi_FOHlSSDE4guylNng-448">
          <mxGeometry x="960" y="170" width="400" height="150" as="geometry" />
        </mxCell>
        <mxCell id="rdi_FOHlSSDE4guylNng-28" value="&lt;span style=&quot;font-size: 50px;&quot;&gt;품목별단가조회 및 변경&lt;/span&gt;" style="rounded=0;whiteSpace=wrap;html=1;fontSize=50;strokeWidth=4;" vertex="1" parent="rdi_FOHlSSDE4guylNng-448">
          <mxGeometry x="960" y="340" width="400" height="150" as="geometry" />
        </mxCell>
        <mxCell id="rdi_FOHlSSDE4guylNng-30" value="&lt;span style=&quot;font-size: 50px;&quot;&gt;구매조회/입력&lt;/span&gt;" style="rounded=0;whiteSpace=wrap;html=1;fontSize=50;strokeWidth=4;" vertex="1" parent="rdi_FOHlSSDE4guylNng-448">
          <mxGeometry x="960" width="400" height="150" as="geometry" />
        </mxCell>
        <mxCell id="rdi_FOHlSSDE4guylNng-179" value="" style="group;strokeWidth=4;" vertex="1" connectable="0" parent="rdi_FOHlSSDE4guylNng-448">
          <mxGeometry x="400" y="70" width="560" height="520" as="geometry" />
        </mxCell>
        <mxCell id="rdi_FOHlSSDE4guylNng-171" value="" style="strokeWidth=4;html=1;shape=mxgraph.flowchart.annotation_2;align=left;labelPosition=right;pointerEvents=1;direction=east;" vertex="1" parent="rdi_FOHlSSDE4guylNng-179">
          <mxGeometry width="560" height="520" as="geometry" />
        </mxCell>
        <mxCell id="rdi_FOHlSSDE4guylNng-172" value="" style="endArrow=none;html=1;rounded=0;entryX=1.001;entryY=0.797;entryDx=0;entryDy=0;entryPerimeter=0;strokeWidth=4;" edge="1" parent="rdi_FOHlSSDE4guylNng-179">
          <mxGeometry width="50" height="50" relative="1" as="geometry">
            <mxPoint x="560" y="344" as="sourcePoint" />
            <mxPoint x="279" y="344" as="targetPoint" />
          </mxGeometry>
        </mxCell>
        <mxCell id="rdi_FOHlSSDE4guylNng-173" value="" style="endArrow=none;html=1;rounded=0;entryX=1.001;entryY=0.797;entryDx=0;entryDy=0;entryPerimeter=0;strokeWidth=4;" edge="1" parent="rdi_FOHlSSDE4guylNng-179">
          <mxGeometry width="50" height="50" relative="1" as="geometry">
            <mxPoint x="560" y="174" as="sourcePoint" />
            <mxPoint x="279" y="174" as="targetPoint" />
          </mxGeometry>
        </mxCell>
        <mxCell id="rdi_FOHlSSDE4guylNng-451" value="" style="rounded=0;whiteSpace=wrap;html=1;strokeWidth=10;" vertex="1" parent="1">
          <mxGeometry x="15580" y="16760" width="6420" height="5320" as="geometry" />
        </mxCell>
        <mxCell id="rdi_FOHlSSDE4guylNng-452" value="" style="rounded=0;whiteSpace=wrap;html=1;strokeWidth=4;" vertex="1" parent="1">
          <mxGeometry x="22790" y="16570" width="2330" height="4950" as="geometry" />
        </mxCell>
        <mxCell id="rdi_FOHlSSDE4guylNng-453" value="제조시간 &lt;br&gt;예측분석" style="rounded=0;whiteSpace=wrap;html=1;fontSize=50;strokeWidth=4;" vertex="1" parent="1">
          <mxGeometry x="24200" y="20926" width="400" height="150" as="geometry" />
        </mxCell>
        <mxCell id="rdi_FOHlSSDE4guylNng-454" value="공정기준" style="rounded=0;whiteSpace=wrap;html=1;fontSize=50;strokeWidth=4;" vertex="1" parent="1">
          <mxGeometry x="24200" y="17095" width="400" height="150" as="geometry" />
        </mxCell>
        <mxCell id="rdi_FOHlSSDE4guylNng-455" value="작업지시서" style="rounded=0;whiteSpace=wrap;html=1;fontSize=50;strokeWidth=4;" vertex="1" parent="1">
          <mxGeometry x="23240" y="16850" width="400" height="150" as="geometry" />
        </mxCell>
        <mxCell id="rdi_FOHlSSDE4guylNng-456" value="공정단계" style="rounded=0;whiteSpace=wrap;html=1;fontSize=50;strokeWidth=4;" vertex="1" parent="1">
          <mxGeometry x="23240" y="16680" width="400" height="150" as="geometry" />
        </mxCell>
        <mxCell id="rdi_FOHlSSDE4guylNng-457" value="예측분석관리" style="rounded=0;whiteSpace=wrap;html=1;fontSize=50;strokeWidth=4;" vertex="1" parent="1">
          <mxGeometry x="23240" y="21010" width="400" height="150" as="geometry" />
        </mxCell>
        <mxCell id="rdi_FOHlSSDE4guylNng-458" value="거래처관리" style="rounded=0;whiteSpace=wrap;html=1;fontSize=50;strokeWidth=4;" vertex="1" parent="1">
          <mxGeometry x="23240" y="17020" width="400" height="150" as="geometry" />
        </mxCell>
        <mxCell id="rdi_FOHlSSDE4guylNng-459" style="edgeStyle=orthogonalEdgeStyle;rounded=0;orthogonalLoop=1;jettySize=auto;html=1;entryX=0;entryY=0.5;entryDx=0;entryDy=0;strokeWidth=12;" edge="1" parent="1" source="rdi_FOHlSSDE4guylNng-460" target="rdi_FOHlSSDE4guylNng-534">
          <mxGeometry relative="1" as="geometry" />
        </mxCell>
        <mxCell id="rdi_FOHlSSDE4guylNng-460" value="로그인" style="rhombus;whiteSpace=wrap;html=1;fontSize=100;strokeWidth=7;" vertex="1" parent="1">
          <mxGeometry x="15815" y="18280" width="1150" height="840" as="geometry" />
        </mxCell>
        <mxCell id="rdi_FOHlSSDE4guylNng-461" value="입고 관리" style="rounded=0;whiteSpace=wrap;html=1;fontSize=50;strokeWidth=4;" vertex="1" parent="1">
          <mxGeometry x="23240" y="20285" width="400" height="150" as="geometry" />
        </mxCell>
        <mxCell id="rdi_FOHlSSDE4guylNng-462" value="재고관리" style="rounded=0;whiteSpace=wrap;html=1;fontSize=50;strokeWidth=4;" vertex="1" parent="1">
          <mxGeometry x="23240" y="19560" width="400" height="150" as="geometry" />
        </mxCell>
        <mxCell id="rdi_FOHlSSDE4guylNng-463" value="프로필" style="rounded=0;whiteSpace=wrap;html=1;fontSize=100;strokeWidth=5;" vertex="1" parent="1">
          <mxGeometry x="17220" y="19200" width="730" height="500" as="geometry" />
        </mxCell>
        <mxCell id="rdi_FOHlSSDE4guylNng-464" value="&lt;b style=&quot;font-size: 100px;&quot;&gt;모니터링&lt;/b&gt;" style="rounded=0;whiteSpace=wrap;html=1;fontSize=100;strokeWidth=5;" vertex="1" parent="1">
          <mxGeometry x="21820" y="16010" width="730" height="420" as="geometry" />
        </mxCell>
        <mxCell id="rdi_FOHlSSDE4guylNng-465" value="구민 : 메인 , 모니터링&lt;br style=&quot;font-size: 200px;&quot;&gt;민영 : 프로필 , 로그인 , 모니터링&lt;br style=&quot;font-size: 200px;&quot;&gt;은별 : 재고 , 입고&lt;br style=&quot;font-size: 200px;&quot;&gt;의건 : 공정, 예측&lt;br style=&quot;font-size: 200px;&quot;&gt;지훈 : 생산계획, 생산실적&lt;br style=&quot;font-size: 200px;&quot;&gt;" style="shape=document;whiteSpace=wrap;html=1;boundedLbl=1;fontSize=200;" vertex="1" parent="1">
          <mxGeometry x="19638" y="14400" width="3032" height="1880" as="geometry" />
        </mxCell>
        <mxCell id="rdi_FOHlSSDE4guylNng-466" value="&lt;span style=&quot;font-size: 50px;&quot;&gt;거래처등록&lt;/span&gt;" style="rounded=0;whiteSpace=wrap;html=1;fontSize=50;strokeWidth=4;" vertex="1" parent="1">
          <mxGeometry x="24200" y="20550" width="400" height="150" as="geometry" />
        </mxCell>
        <mxCell id="rdi_FOHlSSDE4guylNng-467" value="&lt;span style=&quot;font-size: 50px;&quot;&gt;품목등록&lt;/span&gt;" style="rounded=0;whiteSpace=wrap;html=1;fontSize=50;strokeWidth=4;" vertex="1" parent="1">
          <mxGeometry x="24200" y="20200" width="400" height="150" as="geometry" />
        </mxCell>
        <mxCell id="rdi_FOHlSSDE4guylNng-468" value="&lt;span style=&quot;font-size: 50px;&quot;&gt;품목별단가조회 및 변경&lt;/span&gt;" style="rounded=0;whiteSpace=wrap;html=1;fontSize=50;strokeWidth=4;" vertex="1" parent="1">
          <mxGeometry x="24200" y="20370" width="400" height="150" as="geometry" />
        </mxCell>
        <mxCell id="rdi_FOHlSSDE4guylNng-469" value="&lt;span style=&quot;font-size: 50px;&quot;&gt;구매조회/입력&lt;/span&gt;" style="rounded=0;whiteSpace=wrap;html=1;fontSize=50;strokeWidth=4;" vertex="1" parent="1">
          <mxGeometry x="24200" y="20030" width="400" height="150" as="geometry" />
        </mxCell>
        <mxCell id="rdi_FOHlSSDE4guylNng-470" value="생산실적관리" style="rounded=0;whiteSpace=wrap;html=1;fontSize=50;strokeWidth=4;" vertex="1" parent="1">
          <mxGeometry x="24200" y="17990" width="400" height="150" as="geometry" />
        </mxCell>
        <mxCell id="rdi_FOHlSSDE4guylNng-471" value="생산부품관리" style="rounded=0;whiteSpace=wrap;html=1;fontSize=50;strokeWidth=4;" vertex="1" parent="1">
          <mxGeometry x="23240" y="17720" width="400" height="150" as="geometry" />
        </mxCell>
        <mxCell id="rdi_FOHlSSDE4guylNng-472" value="작업지시&lt;br style=&quot;font-size: 50px;&quot;&gt;설계 / 현황" style="rounded=0;whiteSpace=wrap;html=1;fontSize=50;strokeWidth=4;" vertex="1" parent="1">
          <mxGeometry x="23240" y="18635" width="400" height="150" as="geometry" />
        </mxCell>
        <mxCell id="rdi_FOHlSSDE4guylNng-473" value="생산계획&lt;br style=&quot;font-size: 50px;&quot;&gt;수립 / 현황" style="rounded=0;whiteSpace=wrap;html=1;fontSize=50;strokeWidth=4;" vertex="1" parent="1">
          <mxGeometry x="23240" y="18460" width="400" height="150" as="geometry" />
        </mxCell>
        <mxCell id="rdi_FOHlSSDE4guylNng-474" value="생산계획대비&lt;br style=&quot;font-size: 50px;&quot;&gt;실적현황" style="rounded=0;whiteSpace=wrap;html=1;fontSize=50;strokeWidth=4;" vertex="1" parent="1">
          <mxGeometry x="23240" y="18810" width="400" height="150" as="geometry" />
        </mxCell>
        <mxCell id="rdi_FOHlSSDE4guylNng-475" value="작업지시대비&lt;br style=&quot;font-size: 50px;&quot;&gt;실적현황" style="rounded=0;whiteSpace=wrap;html=1;fontSize=50;strokeWidth=4;" vertex="1" parent="1">
          <mxGeometry x="23240" y="18990" width="400" height="150" as="geometry" />
        </mxCell>
        <mxCell id="rdi_FOHlSSDE4guylNng-476" value="장비별&lt;br style=&quot;font-size: 50px;&quot;&gt;생산실적현황" style="rounded=0;whiteSpace=wrap;html=1;fontSize=50;strokeWidth=4;" vertex="1" parent="1">
          <mxGeometry x="23240" y="19170" width="400" height="150" as="geometry" />
        </mxCell>
        <mxCell id="rdi_FOHlSSDE4guylNng-477" value="장비정보관리" style="rounded=0;whiteSpace=wrap;html=1;fontSize=50;strokeWidth=4;" vertex="1" parent="1">
          <mxGeometry x="23240" y="17180" width="400" height="150" as="geometry" />
        </mxCell>
        <mxCell id="rdi_FOHlSSDE4guylNng-478" value="부품정보관리" style="rounded=0;whiteSpace=wrap;html=1;fontSize=50;strokeWidth=4;" vertex="1" parent="1">
          <mxGeometry x="23240" y="17350" width="400" height="150" as="geometry" />
        </mxCell>
        <mxCell id="rdi_FOHlSSDE4guylNng-479" value="기초코드" style="rounded=0;whiteSpace=wrap;html=1;fontSize=50;strokeWidth=4;" vertex="1" parent="1">
          <mxGeometry x="23240" y="17513" width="400" height="150" as="geometry" />
        </mxCell>
        <mxCell id="rdi_FOHlSSDE4guylNng-480" value="장비점검주기" style="rounded=0;whiteSpace=wrap;html=1;fontSize=50;strokeWidth=4;" vertex="1" parent="1">
          <mxGeometry x="24200" y="21090" width="400" height="150" as="geometry" />
        </mxCell>
        <mxCell id="rdi_FOHlSSDE4guylNng-481" value="공구 수명 기준&lt;br style=&quot;font-size: 50px;&quot;&gt;불량 집계" style="rounded=0;whiteSpace=wrap;html=1;fontSize=50;strokeWidth=4;" vertex="1" parent="1">
          <mxGeometry x="24200" y="20760" width="400" height="150" as="geometry" />
        </mxCell>
        <mxCell id="rdi_FOHlSSDE4guylNng-482" value="장비 수명 기준&lt;br style=&quot;font-size: 50px;&quot;&gt;불량 집계" style="rounded=0;whiteSpace=wrap;html=1;fontSize=50;strokeWidth=4;" vertex="1" parent="1">
          <mxGeometry x="24200" y="21260" width="400" height="150" as="geometry" />
        </mxCell>
        <mxCell id="rdi_FOHlSSDE4guylNng-483" style="edgeStyle=orthogonalEdgeStyle;rounded=0;orthogonalLoop=1;jettySize=auto;html=1;entryX=0.5;entryY=0;entryDx=0;entryDy=0;strokeWidth=12;" edge="1" parent="1" source="rdi_FOHlSSDE4guylNng-484" target="rdi_FOHlSSDE4guylNng-460">
          <mxGeometry relative="1" as="geometry" />
        </mxCell>
        <mxCell id="rdi_FOHlSSDE4guylNng-484" value="로그인 페이지&lt;br&gt;" style="rounded=0;whiteSpace=wrap;html=1;fontSize=100;strokeWidth=10;" vertex="1" parent="1">
          <mxGeometry x="15790" y="16120" width="1200" height="420" as="geometry" />
        </mxCell>
        <mxCell id="rdi_FOHlSSDE4guylNng-485" value="검색기능" style="rounded=0;whiteSpace=wrap;html=1;fontSize=100;strokeWidth=5;" vertex="1" parent="1">
          <mxGeometry x="18130" y="19200" width="700" height="500" as="geometry" />
        </mxCell>
        <mxCell id="rdi_FOHlSSDE4guylNng-486" value="&lt;font style=&quot;font-size: 52px;&quot;&gt;공정 관리 시스템&lt;br style=&quot;font-size: 52px;&quot;&gt;&lt;/font&gt;" style="rounded=1;whiteSpace=wrap;html=1;fontSize=52;strokeWidth=7;" vertex="1" parent="1">
          <mxGeometry x="23070" y="16250" width="1660" height="230" as="geometry" />
        </mxCell>
        <mxCell id="rdi_FOHlSSDE4guylNng-487" value="생산 계획관리" style="rounded=0;whiteSpace=wrap;html=1;fontSize=50;strokeWidth=4;" vertex="1" parent="1">
          <mxGeometry x="24200" y="18810" width="400" height="150" as="geometry" />
        </mxCell>
        <mxCell id="rdi_FOHlSSDE4guylNng-488" value="세부공정생산&lt;br style=&quot;font-size: 50px;&quot;&gt;계획관리" style="rounded=0;whiteSpace=wrap;html=1;fontSize=50;strokeWidth=4;" vertex="1" parent="1">
          <mxGeometry x="23240" y="17900" width="400" height="150" as="geometry" />
        </mxCell>
        <mxCell id="rdi_FOHlSSDE4guylNng-489" value="작업자별&lt;br style=&quot;font-size: 50px;&quot;&gt;일정현황" style="rounded=0;whiteSpace=wrap;html=1;fontSize=50;strokeWidth=4;" vertex="1" parent="1">
          <mxGeometry x="23240" y="18070" width="400" height="150" as="geometry" />
        </mxCell>
        <mxCell id="rdi_FOHlSSDE4guylNng-490" value="공정별&lt;br style=&quot;font-size: 40px;&quot;&gt;작업지시&lt;br style=&quot;font-size: 40px;&quot;&gt;관리/출력" style="rounded=0;whiteSpace=wrap;html=1;fontSize=40;strokeWidth=4;" vertex="1" parent="1">
          <mxGeometry x="23240" y="18238" width="400" height="150" as="geometry" />
        </mxCell>
        <mxCell id="rdi_FOHlSSDE4guylNng-491" value="완제품재고" style="rounded=0;whiteSpace=wrap;html=1;fontSize=50;verticalAlign=middle;strokeWidth=4;" vertex="1" parent="1">
          <mxGeometry x="24200" y="19327" width="400" height="150" as="geometry" />
        </mxCell>
        <mxCell id="rdi_FOHlSSDE4guylNng-492" value="반제품재고" style="rounded=0;whiteSpace=wrap;html=1;fontSize=50;verticalAlign=middle;strokeWidth=4;" vertex="1" parent="1">
          <mxGeometry x="24200" y="19500" width="400" height="150" as="geometry" />
        </mxCell>
        <mxCell id="rdi_FOHlSSDE4guylNng-493" value="출하조회/입력" style="rounded=0;whiteSpace=wrap;html=1;fontSize=50;verticalAlign=middle;strokeWidth=4;" vertex="1" parent="1">
          <mxGeometry x="24200" y="19670" width="400" height="150" as="geometry" />
        </mxCell>
        <mxCell id="rdi_FOHlSSDE4guylNng-494" value="출하지시서 조회/입력" style="rounded=0;whiteSpace=wrap;html=1;fontSize=50;verticalAlign=middle;strokeWidth=4;" vertex="1" parent="1">
          <mxGeometry x="24200" y="19830" width="400" height="150" as="geometry" />
        </mxCell>
        <mxCell id="rdi_FOHlSSDE4guylNng-495" style="edgeStyle=orthogonalEdgeStyle;rounded=0;orthogonalLoop=1;jettySize=auto;html=1;exitX=0.5;exitY=1;exitDx=0;exitDy=0;strokeWidth=4;" edge="1" parent="1" source="rdi_FOHlSSDE4guylNng-487" target="rdi_FOHlSSDE4guylNng-487">
          <mxGeometry relative="1" as="geometry" />
        </mxCell>
        <mxCell id="rdi_FOHlSSDE4guylNng-496" value="관리자" style="shape=actor;whiteSpace=wrap;html=1;fontSize=100;strokeWidth=10;" vertex="1" parent="1">
          <mxGeometry x="20290" y="16760" width="790" height="890" as="geometry" />
        </mxCell>
        <mxCell id="rdi_FOHlSSDE4guylNng-497" value="" style="group;strokeWidth=4;" vertex="1" connectable="0" parent="1">
          <mxGeometry x="23640" y="18530" width="560" height="710" as="geometry" />
        </mxCell>
        <mxCell id="rdi_FOHlSSDE4guylNng-498" style="edgeStyle=orthogonalEdgeStyle;rounded=0;orthogonalLoop=1;jettySize=auto;html=1;exitX=0.5;exitY=1;exitDx=0;exitDy=0;strokeWidth=4;" edge="1" parent="rdi_FOHlSSDE4guylNng-497">
          <mxGeometry relative="1" as="geometry">
            <mxPoint x="260" y="290" as="sourcePoint" />
            <mxPoint x="260" y="290" as="targetPoint" />
          </mxGeometry>
        </mxCell>
        <mxCell id="rdi_FOHlSSDE4guylNng-499" value="" style="strokeWidth=4;html=1;shape=mxgraph.flowchart.annotation_2;align=left;labelPosition=right;pointerEvents=1;direction=west;" vertex="1" parent="rdi_FOHlSSDE4guylNng-497">
          <mxGeometry width="560" height="710" as="geometry" />
        </mxCell>
        <mxCell id="rdi_FOHlSSDE4guylNng-500" value="" style="endArrow=none;html=1;rounded=0;entryX=1.001;entryY=0.797;entryDx=0;entryDy=0;entryPerimeter=0;strokeWidth=4;" edge="1" parent="rdi_FOHlSSDE4guylNng-497">
          <mxGeometry width="50" height="50" relative="1" as="geometry">
            <mxPoint x="281" y="179.47000000000025" as="sourcePoint" />
            <mxPoint y="179.47000000000025" as="targetPoint" />
          </mxGeometry>
        </mxCell>
        <mxCell id="rdi_FOHlSSDE4guylNng-501" value="" style="endArrow=none;html=1;rounded=0;entryX=1.001;entryY=0.797;entryDx=0;entryDy=0;entryPerimeter=0;strokeWidth=4;" edge="1" parent="rdi_FOHlSSDE4guylNng-497">
          <mxGeometry width="50" height="50" relative="1" as="geometry">
            <mxPoint x="281" y="354.47000000000025" as="sourcePoint" />
            <mxPoint y="354.47000000000025" as="targetPoint" />
          </mxGeometry>
        </mxCell>
        <mxCell id="rdi_FOHlSSDE4guylNng-502" value="" style="endArrow=none;html=1;rounded=0;entryX=1.001;entryY=0.797;entryDx=0;entryDy=0;entryPerimeter=0;strokeWidth=4;" edge="1" parent="rdi_FOHlSSDE4guylNng-497">
          <mxGeometry width="50" height="50" relative="1" as="geometry">
            <mxPoint x="281" y="534.4700000000003" as="sourcePoint" />
            <mxPoint y="534.4700000000003" as="targetPoint" />
          </mxGeometry>
        </mxCell>
        <mxCell id="rdi_FOHlSSDE4guylNng-503" value="" style="group;strokeWidth=4;" vertex="1" connectable="0" parent="1">
          <mxGeometry x="23640" y="17790" width="560" height="520" as="geometry" />
        </mxCell>
        <mxCell id="rdi_FOHlSSDE4guylNng-504" value="" style="strokeWidth=4;html=1;shape=mxgraph.flowchart.annotation_2;align=left;labelPosition=right;pointerEvents=1;direction=west;" vertex="1" parent="rdi_FOHlSSDE4guylNng-503">
          <mxGeometry width="560" height="520" as="geometry" />
        </mxCell>
        <mxCell id="rdi_FOHlSSDE4guylNng-505" value="" style="endArrow=none;html=1;rounded=0;entryX=1.001;entryY=0.797;entryDx=0;entryDy=0;entryPerimeter=0;strokeWidth=4;" edge="1" parent="rdi_FOHlSSDE4guylNng-503">
          <mxGeometry width="50" height="50" relative="1" as="geometry">
            <mxPoint x="281" y="360" as="sourcePoint" />
            <mxPoint y="360" as="targetPoint" />
          </mxGeometry>
        </mxCell>
        <mxCell id="rdi_FOHlSSDE4guylNng-506" value="" style="endArrow=none;html=1;rounded=0;entryX=1.001;entryY=0.797;entryDx=0;entryDy=0;entryPerimeter=0;strokeWidth=4;" edge="1" parent="rdi_FOHlSSDE4guylNng-503">
          <mxGeometry width="50" height="50" relative="1" as="geometry">
            <mxPoint x="281" y="170" as="sourcePoint" />
            <mxPoint y="170" as="targetPoint" />
          </mxGeometry>
        </mxCell>
        <mxCell id="rdi_FOHlSSDE4guylNng-507" value="" style="group;strokeWidth=4;" vertex="1" connectable="0" parent="1">
          <mxGeometry x="23640" y="16760" width="560" height="820" as="geometry" />
        </mxCell>
        <mxCell id="rdi_FOHlSSDE4guylNng-508" value="" style="strokeWidth=4;html=1;shape=mxgraph.flowchart.annotation_2;align=left;labelPosition=right;pointerEvents=1;direction=west;" vertex="1" parent="rdi_FOHlSSDE4guylNng-507">
          <mxGeometry width="560" height="820" as="geometry" />
        </mxCell>
        <mxCell id="rdi_FOHlSSDE4guylNng-509" value="" style="endArrow=none;html=1;rounded=0;entryX=1.001;entryY=0.797;entryDx=0;entryDy=0;entryPerimeter=0;strokeWidth=4;" edge="1" parent="rdi_FOHlSSDE4guylNng-507" target="rdi_FOHlSSDE4guylNng-508">
          <mxGeometry width="50" height="50" relative="1" as="geometry">
            <mxPoint x="280" y="166" as="sourcePoint" />
            <mxPoint x="300" y="290" as="targetPoint" />
          </mxGeometry>
        </mxCell>
        <mxCell id="rdi_FOHlSSDE4guylNng-510" value="" style="endArrow=none;html=1;rounded=0;entryX=1.001;entryY=0.797;entryDx=0;entryDy=0;entryPerimeter=0;strokeWidth=4;" edge="1" parent="rdi_FOHlSSDE4guylNng-507">
          <mxGeometry width="50" height="50" relative="1" as="geometry">
            <mxPoint x="281" y="335" as="sourcePoint" />
            <mxPoint y="335" as="targetPoint" />
          </mxGeometry>
        </mxCell>
        <mxCell id="rdi_FOHlSSDE4guylNng-511" value="" style="endArrow=none;html=1;rounded=0;entryX=1.001;entryY=0.797;entryDx=0;entryDy=0;entryPerimeter=0;strokeWidth=4;" edge="1" parent="rdi_FOHlSSDE4guylNng-507">
          <mxGeometry width="50" height="50" relative="1" as="geometry">
            <mxPoint x="281" y="485" as="sourcePoint" />
            <mxPoint y="485" as="targetPoint" />
          </mxGeometry>
        </mxCell>
        <mxCell id="rdi_FOHlSSDE4guylNng-512" value="" style="endArrow=none;html=1;rounded=0;entryX=1.001;entryY=0.797;entryDx=0;entryDy=0;entryPerimeter=0;strokeWidth=4;" edge="1" parent="rdi_FOHlSSDE4guylNng-507">
          <mxGeometry width="50" height="50" relative="1" as="geometry">
            <mxPoint x="281" y="664.3800000000001" as="sourcePoint" />
            <mxPoint y="664.3800000000001" as="targetPoint" />
          </mxGeometry>
        </mxCell>
        <mxCell id="rdi_FOHlSSDE4guylNng-513" value="" style="group;strokeWidth=4;" vertex="1" connectable="0" parent="1">
          <mxGeometry x="23640" y="20830" width="560" height="520" as="geometry" />
        </mxCell>
        <mxCell id="rdi_FOHlSSDE4guylNng-514" value="" style="strokeWidth=4;html=1;shape=mxgraph.flowchart.annotation_2;align=left;labelPosition=right;pointerEvents=1;direction=east;" vertex="1" parent="rdi_FOHlSSDE4guylNng-513">
          <mxGeometry width="560" height="520" as="geometry" />
        </mxCell>
        <mxCell id="rdi_FOHlSSDE4guylNng-515" value="" style="endArrow=none;html=1;rounded=0;entryX=1.001;entryY=0.797;entryDx=0;entryDy=0;entryPerimeter=0;strokeWidth=4;" edge="1" parent="rdi_FOHlSSDE4guylNng-513">
          <mxGeometry width="50" height="50" relative="1" as="geometry">
            <mxPoint x="560" y="334" as="sourcePoint" />
            <mxPoint x="279" y="334" as="targetPoint" />
          </mxGeometry>
        </mxCell>
        <mxCell id="rdi_FOHlSSDE4guylNng-516" value="" style="endArrow=none;html=1;rounded=0;entryX=1.001;entryY=0.797;entryDx=0;entryDy=0;entryPerimeter=0;strokeWidth=4;" edge="1" parent="rdi_FOHlSSDE4guylNng-513">
          <mxGeometry width="50" height="50" relative="1" as="geometry">
            <mxPoint x="560" y="169" as="sourcePoint" />
            <mxPoint x="279" y="169" as="targetPoint" />
          </mxGeometry>
        </mxCell>
        <mxCell id="rdi_FOHlSSDE4guylNng-517" value="" style="group;strokeWidth=4;" vertex="1" connectable="0" parent="1">
          <mxGeometry x="23640" y="20100" width="560" height="520" as="geometry" />
        </mxCell>
        <mxCell id="rdi_FOHlSSDE4guylNng-518" value="" style="strokeWidth=4;html=1;shape=mxgraph.flowchart.annotation_2;align=left;labelPosition=right;pointerEvents=1;direction=east;" vertex="1" parent="rdi_FOHlSSDE4guylNng-517">
          <mxGeometry width="560" height="520" as="geometry" />
        </mxCell>
        <mxCell id="rdi_FOHlSSDE4guylNng-519" value="" style="endArrow=none;html=1;rounded=0;entryX=1.001;entryY=0.797;entryDx=0;entryDy=0;entryPerimeter=0;strokeWidth=4;" edge="1" parent="rdi_FOHlSSDE4guylNng-517">
          <mxGeometry width="50" height="50" relative="1" as="geometry">
            <mxPoint x="560" y="344" as="sourcePoint" />
            <mxPoint x="279" y="344" as="targetPoint" />
          </mxGeometry>
        </mxCell>
        <mxCell id="rdi_FOHlSSDE4guylNng-520" value="" style="endArrow=none;html=1;rounded=0;entryX=1.001;entryY=0.797;entryDx=0;entryDy=0;entryPerimeter=0;strokeWidth=4;" edge="1" parent="rdi_FOHlSSDE4guylNng-517">
          <mxGeometry width="50" height="50" relative="1" as="geometry">
            <mxPoint x="560" y="174" as="sourcePoint" />
            <mxPoint x="279" y="174" as="targetPoint" />
          </mxGeometry>
        </mxCell>
        <mxCell id="rdi_FOHlSSDE4guylNng-521" value="사원" style="shape=actor;whiteSpace=wrap;html=1;fontSize=100;strokeWidth=10;" vertex="1" parent="1">
          <mxGeometry x="20290" y="19660" width="790" height="890" as="geometry" />
        </mxCell>
        <mxCell id="rdi_FOHlSSDE4guylNng-522" style="edgeStyle=orthogonalEdgeStyle;rounded=0;orthogonalLoop=1;jettySize=auto;html=1;exitX=0.5;exitY=1;exitDx=0;exitDy=0;strokeWidth=4;" edge="1" parent="1">
          <mxGeometry relative="1" as="geometry">
            <mxPoint x="24189" y="19660" as="sourcePoint" />
            <mxPoint x="24189" y="19660" as="targetPoint" />
          </mxGeometry>
        </mxCell>
        <mxCell id="rdi_FOHlSSDE4guylNng-523" value="" style="strokeWidth=4;html=1;shape=mxgraph.flowchart.annotation_2;align=left;labelPosition=right;pointerEvents=1;direction=east;" vertex="1" parent="1">
          <mxGeometry x="23640" y="19370" width="560" height="530" as="geometry" />
        </mxCell>
        <mxCell id="rdi_FOHlSSDE4guylNng-524" value="" style="endArrow=none;html=1;rounded=0;entryX=1.001;entryY=0.797;entryDx=0;entryDy=0;entryPerimeter=0;strokeWidth=4;" edge="1" parent="1">
          <mxGeometry width="50" height="50" relative="1" as="geometry">
            <mxPoint x="24200" y="19549.47" as="sourcePoint" />
            <mxPoint x="23919" y="19549.47" as="targetPoint" />
          </mxGeometry>
        </mxCell>
        <mxCell id="rdi_FOHlSSDE4guylNng-525" value="" style="endArrow=none;html=1;rounded=0;entryX=1.001;entryY=0.797;entryDx=0;entryDy=0;entryPerimeter=0;strokeWidth=4;" edge="1" parent="1">
          <mxGeometry width="50" height="50" relative="1" as="geometry">
            <mxPoint x="24200" y="19744.29" as="sourcePoint" />
            <mxPoint x="23919" y="19744.29" as="targetPoint" />
          </mxGeometry>
        </mxCell>
        <mxCell id="rdi_FOHlSSDE4guylNng-526" style="edgeStyle=orthogonalEdgeStyle;rounded=0;orthogonalLoop=1;jettySize=auto;html=1;entryX=0.5;entryY=1;entryDx=0;entryDy=0;strokeWidth=12;" edge="1" parent="1" source="rdi_FOHlSSDE4guylNng-528" target="rdi_FOHlSSDE4guylNng-496">
          <mxGeometry relative="1" as="geometry" />
        </mxCell>
        <mxCell id="rdi_FOHlSSDE4guylNng-527" style="edgeStyle=orthogonalEdgeStyle;rounded=0;orthogonalLoop=1;jettySize=auto;html=1;strokeWidth=12;" edge="1" parent="1" source="rdi_FOHlSSDE4guylNng-528" target="rdi_FOHlSSDE4guylNng-521">
          <mxGeometry relative="1" as="geometry" />
        </mxCell>
        <mxCell id="rdi_FOHlSSDE4guylNng-528" value="사원&amp;nbsp;&lt;br&gt;or&lt;br&gt;관리자&lt;br&gt;" style="rhombus;whiteSpace=wrap;html=1;fontSize=100;strokeWidth=7;" vertex="1" parent="1">
          <mxGeometry x="19170" y="18280" width="1150" height="840" as="geometry" />
        </mxCell>
        <mxCell id="rdi_FOHlSSDE4guylNng-529" style="edgeStyle=orthogonalEdgeStyle;rounded=0;orthogonalLoop=1;jettySize=auto;html=1;entryX=0;entryY=0.129;entryDx=0;entryDy=0;entryPerimeter=0;strokeWidth=12;" edge="1" parent="1" source="rdi_FOHlSSDE4guylNng-496" target="rdi_FOHlSSDE4guylNng-452">
          <mxGeometry relative="1" as="geometry" />
        </mxCell>
        <mxCell id="rdi_FOHlSSDE4guylNng-530" value="" style="endArrow=classic;html=1;rounded=0;" edge="1" parent="1">
          <mxGeometry width="50" height="50" relative="1" as="geometry">
            <mxPoint x="21780" y="18850" as="sourcePoint" />
            <mxPoint x="22200" y="17940" as="targetPoint" />
          </mxGeometry>
        </mxCell>
        <mxCell id="rdi_FOHlSSDE4guylNng-531" value="" style="edgeStyle=elbowEdgeStyle;elbow=vertical;endArrow=classic;html=1;curved=0;rounded=0;endSize=8;startSize=8;exitX=0.5;exitY=1;exitDx=0;exitDy=0;strokeWidth=12;" edge="1" parent="1" source="rdi_FOHlSSDE4guylNng-460">
          <mxGeometry width="50" height="50" relative="1" as="geometry">
            <mxPoint x="16396" y="19200" as="sourcePoint" />
            <mxPoint x="15620" y="17630" as="targetPoint" />
            <Array as="points">
              <mxPoint x="16010" y="19260" />
            </Array>
          </mxGeometry>
        </mxCell>
        <mxCell id="rdi_FOHlSSDE4guylNng-532" value="" style="endArrow=classic;html=1;rounded=0;strokeWidth=12;" edge="1" parent="1">
          <mxGeometry width="50" height="50" relative="1" as="geometry">
            <mxPoint x="15620" y="17630" as="sourcePoint" />
            <mxPoint x="16380" y="17630" as="targetPoint" />
          </mxGeometry>
        </mxCell>
        <mxCell id="rdi_FOHlSSDE4guylNng-533" style="edgeStyle=orthogonalEdgeStyle;rounded=0;orthogonalLoop=1;jettySize=auto;html=1;strokeWidth=12;" edge="1" parent="1" source="rdi_FOHlSSDE4guylNng-534" target="rdi_FOHlSSDE4guylNng-528">
          <mxGeometry relative="1" as="geometry" />
        </mxCell>
        <mxCell id="rdi_FOHlSSDE4guylNng-534" value="메인 페이지" style="rounded=0;whiteSpace=wrap;html=1;fontSize=100;strokeWidth=10;" vertex="1" parent="1">
          <mxGeometry x="17400" y="18490" width="1200" height="420" as="geometry" />
        </mxCell>
        <mxCell id="rdi_FOHlSSDE4guylNng-535" value="" style="strokeWidth=12;html=1;shape=mxgraph.flowchart.annotation_2;align=left;labelPosition=right;pointerEvents=1;direction=south;" vertex="1" parent="1">
          <mxGeometry x="17580" y="18910" width="905" height="290" as="geometry" />
        </mxCell>
        <mxCell id="rdi_FOHlSSDE4guylNng-536" value="그룹웨어" style="rounded=0;whiteSpace=wrap;html=1;fontSize=50;strokeWidth=4;" vertex="1" parent="1">
          <mxGeometry x="4250" y="5510" width="400" height="150" as="geometry" />
        </mxCell>
        <mxCell id="rdi_FOHlSSDE4guylNng-537" value="로그인타입" style="rounded=0;whiteSpace=wrap;html=1;fontSize=100;strokeWidth=5;" vertex="1" parent="1">
          <mxGeometry x="16040" y="15010" width="700" height="500" as="geometry" />
        </mxCell>
        <mxCell id="rdi_FOHlSSDE4guylNng-538" value="ID로그인" style="rounded=0;whiteSpace=wrap;html=1;fontSize=100;strokeWidth=5;" vertex="1" parent="1">
          <mxGeometry x="17040" y="14840" width="450" height="260" as="geometry" />
        </mxCell>
        <mxCell id="rdi_FOHlSSDE4guylNng-539" value="QR로그인" style="rounded=0;whiteSpace=wrap;html=1;fontSize=100;strokeWidth=5;" vertex="1" parent="1">
          <mxGeometry x="17040" y="15440" width="460" height="260" as="geometry" />
        </mxCell>
        <mxCell id="rdi_FOHlSSDE4guylNng-540" value="" style="endArrow=none;html=1;rounded=0;strokeWidth=10;exitX=1;exitY=0.5;exitDx=0;exitDy=0;" edge="1" parent="1" source="rdi_FOHlSSDE4guylNng-537">
          <mxGeometry width="50" height="50" relative="1" as="geometry">
            <mxPoint x="16670" y="15020" as="sourcePoint" />
            <mxPoint x="16920" y="15260" as="targetPoint" />
            <Array as="points" />
          </mxGeometry>
        </mxCell>
        <mxCell id="rdi_FOHlSSDE4guylNng-541" value="" style="endArrow=none;html=1;rounded=0;strokeWidth=10;exitX=0;exitY=0.5;exitDx=0;exitDy=0;" edge="1" parent="1" source="rdi_FOHlSSDE4guylNng-538">
          <mxGeometry width="50" height="50" relative="1" as="geometry">
            <mxPoint x="15950" y="14710" as="sourcePoint" />
            <mxPoint x="16920" y="15260" as="targetPoint" />
            <Array as="points">
              <mxPoint x="16920" y="14970" />
            </Array>
          </mxGeometry>
        </mxCell>
        <mxCell id="rdi_FOHlSSDE4guylNng-542" value="" style="endArrow=none;html=1;rounded=0;entryX=0;entryY=0.5;entryDx=0;entryDy=0;strokeWidth=10;" edge="1" parent="1" target="rdi_FOHlSSDE4guylNng-539">
          <mxGeometry width="50" height="50" relative="1" as="geometry">
            <mxPoint x="16920" y="15260" as="sourcePoint" />
            <mxPoint x="16840" y="14610" as="targetPoint" />
            <Array as="points">
              <mxPoint x="16920" y="15570" />
            </Array>
          </mxGeometry>
        </mxCell>
        <mxCell id="rdi_FOHlSSDE4guylNng-543" value="" style="endArrow=none;html=1;rounded=0;exitX=0.5;exitY=0;exitDx=0;exitDy=0;strokeWidth=10;entryX=0.5;entryY=1;entryDx=0;entryDy=0;" edge="1" parent="1" source="rdi_FOHlSSDE4guylNng-484" target="rdi_FOHlSSDE4guylNng-537">
          <mxGeometry width="50" height="50" relative="1" as="geometry">
            <mxPoint x="15510" y="15230" as="sourcePoint" />
            <mxPoint x="15560" y="15180" as="targetPoint" />
          </mxGeometry>
        </mxCell>
        <mxCell id="rdi_FOHlSSDE4guylNng-544" value="비밀번호&lt;br&gt;찾기" style="rounded=0;whiteSpace=wrap;html=1;fontSize=100;strokeWidth=5;" vertex="1" parent="1">
          <mxGeometry x="15090" y="15010" width="700" height="500" as="geometry" />
        </mxCell>
        <mxCell id="rdi_FOHlSSDE4guylNng-545" value="" style="endArrow=none;html=1;rounded=0;entryX=0.5;entryY=1;entryDx=0;entryDy=0;strokeWidth=10;" edge="1" parent="1" target="rdi_FOHlSSDE4guylNng-544">
          <mxGeometry width="50" height="50" relative="1" as="geometry">
            <mxPoint x="16390" y="15770" as="sourcePoint" />
            <mxPoint x="16000" y="15430" as="targetPoint" />
            <Array as="points">
              <mxPoint x="15440" y="15770" />
            </Array>
          </mxGeometry>
        </mxCell>
        <mxCell id="rdi_FOHlSSDE4guylNng-546" value="&lt;font style=&quot;font-size: 80px;&quot;&gt;setTimeout&lt;br&gt;3분&lt;br&gt;&lt;/font&gt;" style="rounded=0;whiteSpace=wrap;html=1;fontSize=100;strokeWidth=5;" vertex="1" parent="1">
          <mxGeometry x="17780" y="15440" width="460" height="260" as="geometry" />
        </mxCell>
        <mxCell id="rdi_FOHlSSDE4guylNng-547" value="" style="endArrow=none;html=1;rounded=0;exitX=1;exitY=0.5;exitDx=0;exitDy=0;entryX=0;entryY=0.5;entryDx=0;entryDy=0;strokeWidth=10;" edge="1" parent="1" source="rdi_FOHlSSDE4guylNng-539" target="rdi_FOHlSSDE4guylNng-546">
          <mxGeometry width="50" height="50" relative="1" as="geometry">
            <mxPoint x="16960" y="13980" as="sourcePoint" />
            <mxPoint x="17010" y="13930" as="targetPoint" />
          </mxGeometry>
        </mxCell>
        <mxCell id="rdi_FOHlSSDE4guylNng-548" value="ID입력" style="rounded=0;whiteSpace=wrap;html=1;fontSize=100;strokeWidth=5;" vertex="1" parent="1">
          <mxGeometry x="15215" y="14450" width="450" height="260" as="geometry" />
        </mxCell>
        <mxCell id="rdi_FOHlSSDE4guylNng-549" value="" style="endArrow=none;html=1;rounded=0;exitX=0.5;exitY=0;exitDx=0;exitDy=0;entryX=0.5;entryY=1;entryDx=0;entryDy=0;strokeWidth=10;" edge="1" parent="1" source="rdi_FOHlSSDE4guylNng-544" target="rdi_FOHlSSDE4guylNng-548">
          <mxGeometry width="50" height="50" relative="1" as="geometry">
            <mxPoint x="16240" y="14970" as="sourcePoint" />
            <mxPoint x="16290" y="14920" as="targetPoint" />
          </mxGeometry>
        </mxCell>
        <mxCell id="rdi_FOHlSSDE4guylNng-550" value="&lt;font style=&quot;font-size: 90px;&quot;&gt;인증방법&lt;br&gt;선택&lt;/font&gt;" style="rounded=0;whiteSpace=wrap;html=1;fontSize=100;strokeWidth=5;" vertex="1" parent="1">
          <mxGeometry x="15215" y="13960" width="450" height="260" as="geometry" />
        </mxCell>
        <mxCell id="rdi_FOHlSSDE4guylNng-551" value="&lt;span style=&quot;font-size: 60px;&quot;&gt;인증완료 후&lt;br&gt;비번 재설정&lt;br&gt;&lt;/span&gt;" style="rounded=0;whiteSpace=wrap;html=1;fontSize=100;strokeWidth=5;" vertex="1" parent="1">
          <mxGeometry x="15215" y="13540" width="450" height="260" as="geometry" />
        </mxCell>
        <mxCell id="rdi_FOHlSSDE4guylNng-552" value="" style="endArrow=none;html=1;rounded=0;exitX=0.5;exitY=0;exitDx=0;exitDy=0;entryX=0.5;entryY=1;entryDx=0;entryDy=0;strokeWidth=10;" edge="1" parent="1" source="rdi_FOHlSSDE4guylNng-548" target="rdi_FOHlSSDE4guylNng-550">
          <mxGeometry width="50" height="50" relative="1" as="geometry">
            <mxPoint x="16240" y="14970" as="sourcePoint" />
            <mxPoint x="16290" y="14920" as="targetPoint" />
          </mxGeometry>
        </mxCell>
        <mxCell id="rdi_FOHlSSDE4guylNng-553" value="" style="endArrow=none;html=1;rounded=0;exitX=0.5;exitY=0;exitDx=0;exitDy=0;entryX=0.5;entryY=1;entryDx=0;entryDy=0;strokeWidth=10;" edge="1" parent="1" source="rdi_FOHlSSDE4guylNng-550" target="rdi_FOHlSSDE4guylNng-551">
          <mxGeometry width="50" height="50" relative="1" as="geometry">
            <mxPoint x="16240" y="14970" as="sourcePoint" />
            <mxPoint x="16290" y="14920" as="targetPoint" />
          </mxGeometry>
        </mxCell>
        <mxCell id="rdi_FOHlSSDE4guylNng-555" value="전자결재" style="rounded=0;whiteSpace=wrap;html=1;fontSize=50;strokeWidth=4;" vertex="1" parent="1">
          <mxGeometry x="5210" y="5310" width="400" height="150" as="geometry" />
        </mxCell>
        <mxCell id="rdi_FOHlSSDE4guylNng-556" value="건의게시판" style="rounded=0;whiteSpace=wrap;html=1;fontSize=50;strokeWidth=4;" vertex="1" parent="1">
          <mxGeometry x="5210" y="5495" width="400" height="150" as="geometry" />
        </mxCell>
        <mxCell id="rdi_FOHlSSDE4guylNng-557" value="회사일정" style="rounded=0;whiteSpace=wrap;html=1;fontSize=50;strokeWidth=4;" vertex="1" parent="1">
          <mxGeometry x="5210" y="5695" width="400" height="150" as="geometry" />
        </mxCell>
        <mxCell id="yiQyodVWs_H40nuC7oee-11" value="제조시간 &lt;br&gt;예측분석" style="rounded=0;whiteSpace=wrap;html=1;fontSize=50;strokeWidth=4;" parent="1" vertex="1">
          <mxGeometry x="5210" y="4756" width="400" height="150" as="geometry" />
        </mxCell>
        <mxCell id="Z4Fvok1uF1llNMhCyEb8-17" value="예측분석관리" style="rounded=0;whiteSpace=wrap;html=1;fontSize=50;strokeWidth=4;" parent="1" vertex="1">
          <mxGeometry x="4250" y="4840" width="400" height="150" as="geometry" />
        </mxCell>
        <mxCell id="rdi_FOHlSSDE4guylNng-77" value="장비점검주기" style="rounded=0;whiteSpace=wrap;html=1;fontSize=50;strokeWidth=4;" vertex="1" parent="1">
          <mxGeometry x="5210" y="4920" width="400" height="150" as="geometry" />
        </mxCell>
        <mxCell id="rdi_FOHlSSDE4guylNng-78" value="공구 수명 기준&lt;br style=&quot;font-size: 50px;&quot;&gt;불량 집계" style="rounded=0;whiteSpace=wrap;html=1;fontSize=50;strokeWidth=4;" vertex="1" parent="1">
          <mxGeometry x="5210" y="4590" width="400" height="150" as="geometry" />
        </mxCell>
        <mxCell id="rdi_FOHlSSDE4guylNng-79" value="장비 수명 기준&lt;br style=&quot;font-size: 50px;&quot;&gt;불량 집계" style="rounded=0;whiteSpace=wrap;html=1;fontSize=50;strokeWidth=4;" vertex="1" parent="1">
          <mxGeometry x="5210" y="5090" width="400" height="150" as="geometry" />
        </mxCell>
        <mxCell id="rdi_FOHlSSDE4guylNng-563" value="" style="strokeWidth=4;html=1;shape=mxgraph.flowchart.annotation_2;align=left;labelPosition=right;pointerEvents=1;direction=east;" vertex="1" parent="1">
          <mxGeometry x="4650" y="5380" width="560" height="380" as="geometry" />
        </mxCell>
        <mxCell id="rdi_FOHlSSDE4guylNng-174" value="" style="strokeWidth=4;html=1;shape=mxgraph.flowchart.annotation_2;align=left;labelPosition=right;pointerEvents=1;direction=east;" vertex="1" parent="1">
          <mxGeometry x="4650" y="4660" width="560" height="520" as="geometry" />
        </mxCell>
        <mxCell id="rdi_FOHlSSDE4guylNng-175" value="" style="endArrow=none;html=1;rounded=0;entryX=1.001;entryY=0.797;entryDx=0;entryDy=0;entryPerimeter=0;strokeWidth=4;" edge="1" parent="1">
          <mxGeometry width="50" height="50" relative="1" as="geometry">
            <mxPoint x="5210" y="4994" as="sourcePoint" />
            <mxPoint x="4929" y="4994" as="targetPoint" />
          </mxGeometry>
        </mxCell>
        <mxCell id="rdi_FOHlSSDE4guylNng-176" value="" style="endArrow=none;html=1;rounded=0;entryX=1.001;entryY=0.797;entryDx=0;entryDy=0;entryPerimeter=0;strokeWidth=4;" edge="1" parent="1">
          <mxGeometry width="50" height="50" relative="1" as="geometry">
            <mxPoint x="5210" y="4829" as="sourcePoint" />
            <mxPoint x="4929" y="4829" as="targetPoint" />
          </mxGeometry>
        </mxCell>
        <mxCell id="rdi_FOHlSSDE4guylNng-567" value="" style="endArrow=none;html=1;rounded=0;entryX=1.001;entryY=0.797;entryDx=0;entryDy=0;entryPerimeter=0;strokeWidth=4;" edge="1" parent="1">
          <mxGeometry width="50" height="50" relative="1" as="geometry">
            <mxPoint x="5210" y="5569.33" as="sourcePoint" />
            <mxPoint x="4929" y="5569.33" as="targetPoint" />
          </mxGeometry>
        </mxCell>
        <mxCell id="rdi_FOHlSSDE4guylNng-568" value="비밀번호&lt;br&gt;찾기" style="rounded=0;whiteSpace=wrap;html=1;fontSize=100;strokeWidth=10;" vertex="1" parent="1">
          <mxGeometry x="-3400" y="-700" width="700" height="500" as="geometry" />
        </mxCell>
        <mxCell id="rdi_FOHlSSDE4guylNng-569" value="로그인타입" style="rounded=0;whiteSpace=wrap;html=1;fontSize=100;strokeWidth=10;" vertex="1" parent="1">
          <mxGeometry x="-2470" y="-710" width="700" height="500" as="geometry" />
        </mxCell>
        <mxCell id="rdi_FOHlSSDE4guylNng-570" value="" style="strokeWidth=10;html=1;shape=mxgraph.flowchart.annotation_2;align=left;labelPosition=right;pointerEvents=1;direction=north;" vertex="1" parent="1">
          <mxGeometry x="-3065" y="-200" width="950" height="410" as="geometry" />
        </mxCell>
      </root>
    </mxGraphModel>
  </diagram>
</mxfile>
